<svg width="24" height="24" viewBox="0 0 24 24" fill="none" xmlns="http://www.w3.org/2000/svg">
<path d="M12.01 22.74C11.38 22.74 10.76 22.53 10.27 22.11L8.68999 20.76C8.52999 20.62 8.13 20.48 7.92 20.48H6.17C4.69 20.48 3.49 19.28 3.49 17.8V16.09C3.49 15.88 3.35 15.48 3.22 15.33L1.86 13.73C1.04 12.76 1.04 11.24 1.86 10.26L3.22 8.66001C3.35 8.51001 3.49 8.11001 3.49 7.90001V6.20001C3.49 4.72001 4.69 3.52001 6.17 3.52001H7.9C8.11 3.52001 8.5 3.37001 8.67 3.23001L10.25 1.88001C11.23 1.05001 12.76 1.05001 13.74 1.88001L15.32 3.23001C15.48 3.37001 15.89 3.51001 16.1 3.51001H17.8C19.28 3.51001 20.48 4.71001 20.48 6.19001V7.89001C20.48 8.10001 20.63 8.49001 20.77 8.66001L22.12 10.24C22.96 11.23 22.95 12.76 22.12 13.73L20.77 15.31C20.63 15.48 20.49 15.87 20.49 16.08V17.78C20.49 19.26 19.29 20.46 17.81 20.46H16.11C15.9 20.46 15.51 20.61 15.33 20.75L13.75 22.1C13.26 22.53 12.63 22.74 12.01 22.74ZM6.17 5.02001C5.52 5.02001 4.98999 5.55001 4.98999 6.20001V7.90001C4.98999 8.47001 4.73 9.19001 4.36 9.63001L3 11.23C2.66 11.64 2.66 12.36 3 12.76L4.34999 14.35C4.70999 14.76 4.98 15.51 4.98 16.08V17.79C4.98 18.44 5.51 18.97 6.16 18.97H7.9C8.46 18.97 9.2 19.24 9.64 19.61L11.23 20.97C11.64 21.32 12.36 21.32 12.77 20.97L14.35 19.62C14.8 19.24 15.53 18.98 16.09 18.98H17.79C18.44 18.98 18.97 18.45 18.97 17.8V16.1C18.97 15.54 19.24 14.81 19.61 14.36L20.97 12.77C21.32 12.36 21.32 11.64 20.97 11.23L19.62 9.65001C19.24 9.20001 18.98 8.47001 18.98 7.91001V6.20001C18.98 5.55001 18.45 5.02001 17.8 5.02001H16.1C15.53 5.02001 14.79 4.75001 14.35 4.38001L12.76 3.02001C12.35 2.67001 11.64 2.67001 11.22 3.02001L9.64999 4.38001C9.19999 4.75001 8.47 5.02001 7.9 5.02001H6.17Z" fill="#292D32"/>
<path d="M12 7.38C11.45 7.38 11 7.83 11 8.38C11 8.93 11.44 9.38 12 9.38C12.55 9.38 13 8.93 13 8.38C13 7.83 12.56 7.38 12 7.38Z" fill="#292D32"/>
<path d="M12 10.53C11.59 10.53 11.25 10.87 11.25 11.28V16.12C11.25 16.53 11.59 16.87 12 16.87C12.41 16.87 12.75 16.53 12.75 16.12V11.29C12.75 10.87 12.42 10.53 12 10.53Z" fill="#292D32"/>
</svg>
