<svg width="24" height="24" viewBox="0 0 24 24" fill="none" xmlns="http://www.w3.org/2000/svg">
<path d="M15.24 22.27H15.11C10.67 22.27 8.53 20.52 8.16 16.6C8.12 16.19 8.42 15.82 8.84 15.78C9.25 15.74 9.62 16.05 9.66 16.46C9.95 19.6 11.43 20.77 15.12 20.77H15.25C19.32 20.77 20.76 19.33 20.76 15.26V8.74C20.76 4.67 19.32 3.23 15.25 3.23H15.12C11.41 3.23 9.93 4.42 9.66 7.62C9.61 8.03 9.27 8.34 8.84 8.3C8.42 8.27 8.12 7.9 8.15 7.49C8.49 3.51 10.64 1.73 15.11 1.73H15.24C20.15 1.73 22.25 3.83 22.25 8.74V15.26C22.25 20.17 20.15 22.27 15.24 22.27Z" fill="#292D32"/>
<path d="M14.88 12.75H2C1.59 12.75 1.25 12.41 1.25 12C1.25 11.59 1.59 11.25 2 11.25H14.88C15.29 11.25 15.63 11.59 15.63 12C15.63 12.41 15.3 12.75 14.88 12.75Z" fill="#292D32"/>
<path d="M12.65 16.1C12.46 16.1 12.27 16.03 12.12 15.88C11.83 15.59 11.83 15.11 12.12 14.82L14.94 12L12.12 9.18C11.83 8.89 11.83 8.41 12.12 8.12C12.41 7.83 12.89 7.83 13.18 8.12L16.53 11.47C16.82 11.76 16.82 12.24 16.53 12.53L13.18 15.88C13.03 16.03 12.84 16.1 12.65 16.1Z" fill="#292D32"/>
</svg>
