<svg width="24" height="24" viewBox="0 0 24 24" fill="none" xmlns="http://www.w3.org/2000/svg">
<path d="M15.81 20.18C15.55 20.18 15.28 20.17 14.99 20.14C14.47 20.1 13.88 20 13.27 19.85L11.59 19.45C6.98 18.36 5.47 15.92 6.55 11.32L7.53 7.13C7.75 6.18 8.01 5.41 8.33 4.77C10.05 1.22 13.34 1.54 15.68 2.09L17.35 2.48C19.69 3.03 21.17 3.9 22 5.23C22.82 6.56 22.95 8.27 22.4 10.61L21.42 14.79C20.56 18.45 18.77 20.18 15.81 20.18ZM13.12 3.25C11.45 3.25 10.39 3.94 9.68 5.42C9.42 5.96 9.19 6.63 8.99 7.47L8.01 11.66C7.12 15.44 8.15 17.09 11.93 17.99L13.61 18.39C14.15 18.52 14.66 18.6 15.12 18.64C17.84 18.91 19.19 17.72 19.95 14.45L20.93 10.27C21.38 8.34 21.32 6.99 20.72 6.02C20.12 5.05 18.94 4.39 17 3.94L15.33 3.55C14.5 3.35 13.76 3.25 13.12 3.25Z" fill="#292D32"/>
<path d="M8.33001 22.25C5.76001 22.25 4.12001 20.71 3.07001 17.46L1.79001 13.51C0.370006 9.11 1.64001 6.63 6.02001 5.21L7.60001 4.7C8.12001 4.54 8.51001 4.43 8.86001 4.37C9.15001 4.31 9.43001 4.42 9.60001 4.65C9.77001 4.88 9.80001 5.18 9.68001 5.44C9.42001 5.97 9.19001 6.64 9.00001 7.48L8.02001 11.67C7.13001 15.45 8.16001 17.1 11.94 18L13.62 18.4C14.16 18.53 14.67 18.61 15.13 18.65C15.45 18.68 15.71 18.9 15.8 19.21C15.88 19.52 15.76 19.84 15.5 20.02C14.84 20.47 14.01 20.85 12.96 21.19L11.38 21.71C10.23 22.07 9.23001 22.25 8.33001 22.25ZM7.78001 6.22L6.49001 6.64C2.92001 7.79 2.07001 9.47001 3.22001 13.05L4.50001 17C5.66001 20.57 7.34001 21.43 10.91 20.28L12.49 19.76C12.55 19.74 12.6 19.72 12.66 19.7L11.6 19.45C6.99001 18.36 5.48001 15.92 6.56001 11.32L7.54001 7.13C7.61001 6.81 7.69001 6.5 7.78001 6.22Z" fill="#292D32"/>
<path d="M17.49 10.51C17.43 10.51 17.37 10.5 17.3 10.49L12.45 9.26001C12.05 9.16001 11.81 8.75001 11.91 8.35001C12.01 7.95001 12.42 7.71001 12.82 7.81001L17.67 9.04001C18.07 9.14001 18.31 9.55001 18.21 9.95001C18.13 10.28 17.82 10.51 17.49 10.51Z" fill="#292D32"/>
<path d="M14.56 13.89C14.5 13.89 14.44 13.88 14.37 13.87L11.46 13.13C11.06 13.03 10.82 12.62 10.92 12.22C11.02 11.82 11.43 11.58 11.83 11.68L14.74 12.42C15.14 12.52 15.38 12.93 15.28 13.33C15.2 13.67 14.9 13.89 14.56 13.89Z" fill="#292D32"/>
</svg>
