<svg width="24" height="24" viewBox="0 0 24 24" fill="none" xmlns="http://www.w3.org/2000/svg">
<path d="M12 22.75C6.8 22.75 2.58 18.52 2.58 13.33C2.58 8.13999 6.8 3.89999 12 3.89999C13.07 3.89999 14.11 4.04999 15.11 4.35999C15.51 4.47999 15.73 4.89999 15.61 5.29999C15.49 5.69999 15.07 5.91999 14.67 5.79999C13.82 5.53999 12.92 5.39999 12 5.39999C7.63 5.39999 4.08 8.94999 4.08 13.32C4.08 17.69 7.63 21.24 12 21.24C16.37 21.24 19.92 17.69 19.92 13.32C19.92 11.74 19.46 10.22 18.59 8.91999C18.36 8.57999 18.45 8.10999 18.8 7.87999C19.14 7.64999 19.61 7.73999 19.84 8.08999C20.88 9.63999 21.43 11.45 21.43 13.33C21.42 18.52 17.2 22.75 12 22.75Z" fill="#292D32"/>
<path d="M16.13 6.06999C15.92 6.06999 15.71 5.97999 15.56 5.80999L12.67 2.49C12.4 2.18 12.43 1.69999 12.74 1.42999C13.05 1.15999 13.53 1.18999 13.8 1.49999L16.69 4.82C16.96 5.13 16.93 5.60999 16.62 5.87999C16.49 6.00999 16.31 6.06999 16.13 6.06999Z" fill="#292D32"/>
<path d="M12.76 8.53C12.53 8.53 12.3 8.42 12.15 8.22C11.91 7.89 11.98 7.42 12.31 7.17L15.68 4.71C16.01 4.46 16.48 4.54 16.73 4.87C16.98 5.2 16.9 5.67 16.57 5.92L13.2 8.39C13.07 8.49 12.92 8.53 12.76 8.53Z" fill="#292D32"/>
</svg>
