<?xml version="1.0" encoding="UTF-8" standalone="no"?>
<!DOCTYPE svg PUBLIC "-//W3C//DTD SVG 1.1//EN" "http://www.w3.org/Graphics/SVG/1.1/DTD/svg11.dtd">
<svg width="100%" height="100%" viewBox="0 0 553 516" version="1.1" xmlns="http://www.w3.org/2000/svg" xmlns:xlink="http://www.w3.org/1999/xlink" xml:space="preserve" xmlns:serif="http://www.serif.com/" style="fill-rule:evenodd;clip-rule:evenodd;stroke-linejoin:round;stroke-miterlimit:2;">
    <path d="M372.633,365.415L174.325,365.415C157.656,365.415 144.095,351.854 144.095,335.185L144.095,136.877C144.095,120.208 157.656,106.647 174.325,106.647L372.633,106.647C389.302,106.647 402.863,120.208 402.863,136.877L402.863,335.185C402.863,351.854 389.302,365.415 372.633,365.415ZM174.325,111.484C160.301,111.484 148.932,122.853 148.932,136.877L148.932,335.185C148.932,349.209 160.301,360.578 174.325,360.578L313.235,360.578C360.064,360.578 398.026,322.616 398.026,275.787L398.026,136.877C398.026,122.853 386.657,111.484 372.633,111.484L174.325,111.484L174.325,111.484Z" style="fill:rgb(242,242,242);fill-rule:nonzero;"/>
    <path d="M195.704,132.106C186.319,132.106 178.683,139.741 178.683,149.127L178.683,175.769C178.683,185.155 186.319,192.79 195.704,192.79L222.346,192.79C231.732,192.79 239.367,185.155 239.367,175.769L239.367,149.127C239.367,139.741 231.732,132.106 222.346,132.106L195.704,132.106Z" style="fill:rgb(242,242,242);fill-rule:nonzero;"/>
    <path d="M195.704,207.106C186.319,207.106 178.683,214.741 178.683,224.127L178.683,250.769C178.683,260.155 186.319,267.79 195.704,267.79L222.346,267.79C231.732,267.79 239.367,260.155 239.367,250.769L239.367,224.127C239.367,214.741 231.732,207.106 222.346,207.106L195.704,207.106Z" style="fill:rgb(242,242,242);fill-rule:nonzero;"/>
    <path d="M195.704,282.106C186.319,282.106 178.683,289.741 178.683,299.127L178.683,325.769C178.683,335.155 186.319,342.79 195.704,342.79L222.346,342.79C231.732,342.79 239.367,335.155 239.367,325.769L239.367,299.127C239.367,289.741 231.732,282.106 222.346,282.106L195.704,282.106Z" style="fill:rgb(242,242,242);fill-rule:nonzero;"/>
    <g>
        <path d="M213.372,67.106C201.545,67.106 191.924,76.727 191.924,88.553L191.924,122.123C191.924,133.949 201.545,143.57 213.372,143.57L246.941,143.57C258.767,143.57 268.388,133.949 268.388,122.123L268.388,88.553C268.388,76.727 258.767,67.106 246.941,67.106L213.371,67.106Z" style="fill:rgb(255,117,98);fill-rule:nonzero;"/>
        <path d="M323.89,160.919C312.064,160.919 302.443,170.539 302.443,182.366L302.443,215.935C302.443,227.761 312.064,237.382 323.89,237.382L357.46,237.382C369.286,237.382 378.907,227.761 378.907,215.935L378.907,182.366C378.907,170.539 369.286,160.919 357.46,160.919L323.89,160.919Z" style="fill:rgb(255,117,98);fill-rule:nonzero;"/>
        <g>
            <path d="M275.842,498.808L269.023,498.75L266.004,471.833L276.069,471.917L275.842,498.808Z" style="fill:rgb(160,97,106);fill-rule:nonzero;"/>
            <path d="M253.998,509.652C253.983,511.331 255.336,512.713 257.021,512.728L270.58,512.841L272.954,508.03L273.826,512.866L278.942,512.912L277.65,495.664L275.87,495.545L268.61,495.045L266.267,494.888L266.226,499.768L255.334,507.156C254.505,507.719 254.006,508.651 253.998,509.652L253.998,509.652Z" style="fill:rgb(47,46,65);fill-rule:nonzero;"/>
        </g>
        <g>
            <path d="M310.54,498.808L303.72,498.75L300.702,471.833L310.767,471.917L310.54,498.808Z" style="fill:rgb(160,97,106);fill-rule:nonzero;"/>
            <path d="M288.696,509.652C288.681,511.331 290.034,512.713 291.719,512.728L305.278,512.841L307.652,508.03L308.523,512.866L313.64,512.912L312.348,495.664L310.568,495.545L303.307,495.045L300.965,494.888L300.924,499.768L290.032,507.156C289.203,507.719 288.704,508.651 288.696,509.652L288.696,509.652Z" style="fill:rgb(47,46,65);fill-rule:nonzero;"/>
        </g>
        <path d="M249.081,281.178L276.725,282.051L302.913,287.871C302.913,287.871 307.182,286.568 310.083,297.152C310.083,297.152 320.663,320.17 312.516,339.957L309.024,419.105C309.024,419.105 319.205,474.898 311.426,492.656L301.145,493.298L283.749,419.748L275.27,340.539L271.196,418.523C271.196,418.523 286.781,472.049 276.939,493.298L265.805,492.656L246.753,418.523C246.753,418.523 238.606,332.973 239.77,316.678C240.934,300.383 249.081,281.178 249.081,281.178L249.081,281.178Z" style="fill:rgb(47,46,65);fill-rule:nonzero;"/>
        <g>
            <path d="M341.914,156.113C338.135,157.091 335.865,160.948 336.843,164.727C337.292,166.458 338.348,167.867 339.721,168.798L339.72,168.807L339.184,181.792L349.121,186.391L349.914,166.409L349.845,166.411C350.707,164.876 351.004,163.022 350.528,161.183C349.55,157.404 345.693,155.134 341.914,156.113L341.914,156.113Z" style="fill:rgb(210,168,174);fill-rule:nonzero;"/>
            <path d="M286.378,202.455C284.29,200.386 283.079,197.58 283.034,194.53C282.973,190.438 285.024,186.723 288.52,184.595C292.545,182.143 297.579,182.391 301.345,185.226L332.548,208.719L338.108,174.875L350.044,178.718L347.196,222.788C346.997,225.87 345.255,228.586 342.535,230.052C339.816,231.518 336.59,231.481 333.905,229.954L288.813,204.299C287.907,203.783 287.091,203.162 286.378,202.455L286.378,202.455Z" style="fill:rgb(63,61,86);fill-rule:nonzero;"/>
        </g>
        <g>
            <path d="M238.799,137.182C240.794,140.537 239.691,144.875 236.335,146.869C234.798,147.783 233.056,148.04 231.426,147.734L231.419,147.741L222.658,157.34L212.364,153.61L225.869,138.861L225.916,138.912C226.385,137.215 227.479,135.688 229.112,134.718C232.467,132.723 236.804,133.826 238.799,137.182Z" style="fill:rgb(210,168,174);fill-rule:nonzero;"/>
            <path d="M242.584,208.787L192.498,195.258C189.516,194.453 187.2,192.207 186.301,189.252C185.402,186.296 186.077,183.141 188.105,180.812L217.11,147.511L228.293,153.186L208.413,181.135L247.112,186.419C251.782,187.057 255.531,190.425 256.664,195.001C257.648,198.974 256.489,203.055 253.565,205.918C251.385,208.053 248.55,209.192 245.611,209.192C244.607,209.192 243.59,209.059 242.584,208.787L242.584,208.787Z" style="fill:rgb(63,61,86);fill-rule:nonzero;"/>
        </g>
        <path d="M313.989,292.822L243.951,296.035C242.027,293.114 244.47,289.297 245.242,283.221C248.791,255.302 247.689,223.167 242.492,202.71C241.034,196.97 246.304,189.229 252.197,188.64L257.614,187.132L263.549,171.38L284.927,171.38L293.797,181.513L308.849,190.657C306.109,218.877 307.151,240.184 311.066,278.712C311.641,284.369 315.734,287.809 313.989,292.822L313.989,292.822Z" style="fill:rgb(63,61,86);fill-rule:nonzero;"/>
        <g transform="matrix(1,0,0,1,-436.518,-108.007)">
            <circle cx="710.715" cy="259.18" r="24.561" style="fill:rgb(210,168,174);"/>
        </g>
        <g transform="matrix(1,0,0,1,-617.769,-254.507)">
            <path d="M895.899,417.505C896.781,414.443 896.527,410.3 893.558,409.142C892.011,408.539 890.286,409.014 888.634,409.184C885.403,409.501 882.167,408.61 879.554,406.684C876.483,404.402 874.587,400.912 872.786,397.537L870.062,392.431C869.455,391.367 868.939,390.254 868.516,389.104C867,384.597 868.646,379.379 872.015,376.023C875.535,372.748 880.171,370.931 884.978,370.94C889.749,370.975 894.463,371.984 898.829,373.908C906.59,377.071 913.62,381.794 919.482,387.783C923.314,391.703 926.803,396.81 926.002,402.233C925.379,406.454 922.302,409.834 919.367,412.932L908.723,424.169C906.837,426.159 904.823,428.23 902.191,428.996C899.558,429.761 896.168,428.637 895.45,425.991C895.45,425.991 895.017,420.567 895.899,417.505Z" style="fill:rgb(47,46,65);fill-rule:nonzero;"/>
        </g>
    </g>
    <path d="M322.934,60.762C306.183,60.762 292.553,47.132 292.553,30.381C292.553,13.63 306.183,0 322.934,0C339.685,0 353.315,13.63 353.315,30.381C353.315,47.132 339.685,60.762 322.934,60.762ZM322.934,12.152C312.882,12.152 304.705,20.329 304.705,30.381C304.705,40.433 312.882,48.61 322.934,48.61C332.986,48.61 341.163,40.433 341.163,30.381C341.163,20.329 332.986,12.152 322.934,12.152Z" style="fill:rgb(255,117,98);fill-rule:nonzero;"/>
    <path d="M369.677,81.409C368.188,81.409 366.696,80.866 365.524,79.765L337.009,53.042C334.558,50.749 334.434,46.904 336.73,44.456C339.02,42 342.866,41.878 345.316,44.177L373.831,70.9C376.282,73.194 376.406,77.039 374.11,79.486C372.914,80.765 371.297,81.409 369.677,81.409L369.677,81.409Z" style="fill:rgb(255,117,98);fill-rule:nonzero;"/>
    <g>
        <path d="M498.551,498.126C500.617,498.255 501.759,495.689 500.196,494.193L500.041,493.574C500.061,493.525 500.082,493.475 500.102,493.426C502.192,488.444 509.272,488.479 511.344,493.468C513.182,497.896 515.523,502.332 516.099,507.014C516.358,509.08 516.242,511.186 515.783,513.214C520.091,503.804 522.358,493.528 522.358,483.193C522.358,480.597 522.216,478 521.925,475.41C521.686,473.292 521.357,471.186 520.931,469.1C518.625,457.823 513.632,447.082 506.431,438.11C502.969,436.218 500.082,433.26 498.338,429.714C497.711,428.435 497.22,427.059 496.988,425.658C497.382,425.709 498.473,419.709 498.176,419.341C498.725,418.508 499.708,418.094 500.308,417.281C503.29,413.237 507.399,413.943 509.544,419.438C514.126,421.751 514.17,425.586 511.359,429.275C509.57,431.622 509.324,434.797 507.755,437.309C507.916,437.516 508.084,437.716 508.246,437.923C511.207,441.721 513.768,445.803 515.927,450.092C515.316,445.326 516.217,439.584 517.753,435.882C519.501,431.665 522.778,428.113 525.663,424.467C529.129,420.088 536.237,421.999 536.847,427.55C536.853,427.604 536.859,427.658 536.865,427.712C536.436,427.953 536.016,428.21 535.606,428.482C533.267,430.029 534.075,433.655 536.847,434.083L536.91,434.093C536.755,435.637 536.49,437.167 536.103,438.672C539.804,452.988 531.813,458.202 520.401,458.436C520.149,458.566 519.904,458.695 519.652,458.818C520.808,462.073 521.732,465.412 522.416,468.796C523.03,471.787 523.456,474.81 523.695,477.845C523.992,481.675 523.966,485.525 523.643,489.349L523.663,489.213C524.483,485.002 526.77,481.068 530.089,478.343C535.035,474.28 542.022,472.784 547.358,469.518C549.926,467.946 553.217,469.978 552.769,472.956L552.747,473.098C551.953,473.421 551.178,473.796 550.428,474.215C550,474.457 549.58,474.714 549.17,474.985C546.83,476.533 547.639,480.159 550.411,480.587L550.474,480.597C550.519,480.603 550.558,480.61 550.603,480.616C549.24,483.852 547.341,486.855 544.964,489.445C542.65,501.943 532.708,503.128 522.074,499.489L522.068,499.489C520.905,504.553 519.206,509.5 517.023,514.215L499.003,514.215C498.938,514.015 498.88,513.808 498.822,513.608C500.488,513.711 502.168,513.615 503.808,513.311C502.471,511.67 501.134,510.017 499.797,508.376C499.765,508.344 499.739,508.312 499.713,508.28C499.035,507.44 498.351,506.607 497.672,505.767L497.672,505.766C497.63,503.189 497.939,500.619 498.551,498.126L498.551,498.126L498.551,498.126Z" style="fill:rgb(242,242,242);fill-rule:nonzero;"/>
        <path d="M0,514.269C0,514.929 0.53,515.459 1.19,515.459L551.48,515.459C552.14,515.459 552.67,514.929 552.67,514.269C552.67,513.609 552.14,513.079 551.48,513.079L1.19,513.079C0.53,513.079 0,513.609 0,514.269Z" style="fill:rgb(204,204,204);fill-rule:nonzero;"/>
    </g>
</svg>
