<svg width="24" height="24" viewBox="0 0 24 24" fill="none" xmlns="http://www.w3.org/2000/svg">
<path d="M12.6777 19.957C12.9524 20.021 12.9776 20.3808 12.71 20.47V20.47L11.13 20.99C7.16001 22.27 5.07001 21.2 3.78001 17.23L2.50001 13.28C1.22001 9.31 2.28001 7.21 6.25001 5.93L6.774 5.75647C7.17687 5.62305 7.56893 6.02711 7.45454 6.43578C7.39783 6.63836 7.34329 6.84976 7.29001 7.07L6.31001 11.26C5.21001 15.97 6.82001 18.57 11.53 19.69L12.6777 19.957Z" fill="#292D32"/>
<path d="M17.17 3.21L15.5 2.82C12.16 2.03 10.17 2.68 9 5.1C8.7 5.71 8.46 6.45 8.26 7.3L7.28 11.49C6.3 15.67 7.59 17.73 11.76 18.72L13.44 19.12C14.02 19.26 14.56 19.35 15.06 19.39C18.18 19.69 19.84 18.23 20.68 14.62L21.66 10.44C22.64 6.26 21.36 4.19 17.17 3.21ZM15.29 13.33C15.2 13.67 14.9 13.89 14.56 13.89C14.5 13.89 14.44 13.88 14.37 13.87L11.46 13.13C11.06 13.03 10.82 12.62 10.92 12.22C11.02 11.82 11.43 11.58 11.83 11.68L14.74 12.42C15.15 12.52 15.39 12.93 15.29 13.33ZM18.22 9.95C18.13 10.29 17.83 10.51 17.49 10.51C17.43 10.51 17.37 10.5 17.3 10.49L12.45 9.26C12.05 9.16 11.81 8.75 11.91 8.35C12.01 7.95 12.42 7.71 12.82 7.81L17.67 9.04C18.08 9.13 18.32 9.54 18.22 9.95Z" fill="#292D32"/>
</svg>
